<svg xmlns="http://www.w3.org/2000/svg" viewBox="0 0 128 128">
  <defs>
    <linearGradient id="bg" x1="0%" y1="0%" x2="100%" y2="100%">
      <stop offset="0%" style="stop-color:#2563eb"/>
      <stop offset="100%" style="stop-color:#3b82f6"/>
    </linearGradient>
  </defs>
  
  <!-- Background -->
  <rect width="128" height="128" rx="24" fill="url(#bg)"/>
  
  <!-- Airplane icon -->
  <g fill="white">
    <!-- Main body -->
    <path d="M64 30 L68 64 L64 75 L60 64 Z"/>
    
    <!-- Left wing -->
    <path d="M30 55 L68 60 L68 64 L30 65 Z"/>
    
    <!-- Right wing -->
    <path d="M98 55 L60 60 L60 64 L98 65 Z"/>
    
    <!-- Tail -->
    <path d="M60 75 L64 88 L68 75 Z"/>
    
    <!-- Small tail fins -->
    <path d="M56 77 L60 75 L60 82 Z" opacity="0.8"/>
    <path d="M72 77 L68 75 L68 82 Z" opacity="0.8"/>
    
    <!-- Contrails -->
    <circle cx="64" cy="95" r="3" opacity="0.5"/>
    <circle cx="64" cy="102" r="2" opacity="0.3"/>
  </g>
  
  <!-- Globe lines (subtle background) -->
  <circle cx="64" cy="64" r="35" fill="none" stroke="white" stroke-width="1.5" opacity="0.15"/>
  <ellipse cx="64" cy="64" rx="35" ry="15" fill="none" stroke="white" stroke-width="1" opacity="0.15"/>
</svg>


